<svg width="23" height="22" viewBox="0 0 23 22" fill="none" xmlns="http://www.w3.org/2000/svg">
<path d="M3.41423 12.8236C4.18823 9.09555 7.42384 6.44663 11.0635 6.44663C14.702 6.44663 17.9376 9.09555 18.7127 12.8236C18.7434 12.9716 18.8315 13.1012 18.9575 13.184C19.0835 13.2669 19.2371 13.2961 19.3846 13.2653C19.5321 13.2345 19.6613 13.1462 19.7439 13.0198C19.8265 12.8934 19.8556 12.7393 19.8249 12.5914C18.9431 8.35108 15.2547 5.30829 11.0635 5.30829C6.87228 5.30829 3.18384 8.35108 2.30202 12.5914C2.27132 12.7393 2.30047 12.8934 2.38305 13.0198C2.46563 13.1462 2.59488 13.2345 2.74237 13.2653C2.88985 13.2961 3.0435 13.2669 3.16949 13.184C3.29549 13.1012 3.38353 12.9716 3.41423 12.8236ZM11.0521 8.72331C12.1056 8.72331 13.1159 9.14308 13.8609 9.89026C14.6058 10.6374 15.0243 11.6508 15.0243 12.7075C15.0243 13.7642 14.6058 14.7776 13.8609 15.5248C13.1159 16.2719 12.1056 16.6917 11.0521 16.6917C9.99864 16.6917 8.98831 16.2719 8.24338 15.5248C7.49846 14.7776 7.07996 13.7642 7.07996 12.7075C7.07996 11.6508 7.49846 10.6374 8.24338 9.89026C8.98831 9.14308 9.99864 8.72331 11.0521 8.72331Z" fill="#6A707C"/>
</svg>
