<svg width="26" height="26" viewBox="0 0 26 26" fill="none" xmlns="http://www.w3.org/2000/svg">
<path d="M6.42014 15.4656L5.59739 18.537L2.59026 18.6006C1.69158 16.9338 1.18182 15.0267 1.18182 13C1.18182 11.0403 1.65843 9.19223 2.50324 7.56496H2.50389L5.18108 8.05579L6.35385 10.7169C6.10839 11.4325 5.9746 12.2007 5.9746 13C5.9747 13.8676 6.13184 14.6988 6.42014 15.4656Z" fill="#FBBB00"/>
<path d="M24.6117 10.7922C24.7474 11.5071 24.8182 12.2454 24.8182 13C24.8182 13.8461 24.7292 14.6714 24.5598 15.4675C23.9845 18.1766 22.4812 20.5422 20.3987 22.2162L20.3981 22.2155L17.026 22.0435L16.5488 19.0642C17.9306 18.2539 19.0105 16.9857 19.5793 15.4675H13.2598V10.7922H19.6715H24.6117Z" fill="#518EF8"/>
<path d="M20.3981 22.2156L20.3987 22.2163C18.3734 23.8442 15.8006 24.8182 13 24.8182C8.49936 24.8182 4.58639 22.3026 2.59027 18.6007L6.42015 15.4656C7.41818 18.1292 9.98767 20.0254 13 20.0254C14.2948 20.0254 15.5078 19.6753 16.5487 19.0643L20.3981 22.2156Z" fill="#28B446"/>
<path d="M20.5436 3.90258L16.715 7.03699C15.6377 6.36363 14.3643 5.97464 13.0001 5.97464C9.91953 5.97464 7.30199 7.95774 6.35395 10.7169L2.50394 7.56493H2.5033C4.47019 3.77272 8.43252 1.18182 13.0001 1.18182C15.8676 1.18182 18.4968 2.20326 20.5436 3.90258Z" fill="#F14336"/>
</svg>
